<svg width="512" height="512" viewBox="0 0 512 512" fill="none" xmlns="http://www.w3.org/2000/svg">
  <circle cx="256" cy="256" r="256" fill="#06122e"/>
  <path d="M325.444 321.111C278.254 321.111 240 282.857 240 235.667C240 208.556 252.611 184.389 272.222 168.889C218.222 168.889 174.222 212.889 174.222 266.889C174.222 320.889 218.222 364.889 272.222 364.889C301.111 364.889 326.889 352.278 344.667 332.222C338.667 331.111 332.222 321.111 325.444 321.111Z" fill="#10B981"/>
  <path d="M360 160L366.18 178.459H385.021L369.42 189.082L375.601 207.541L360 196.918L344.399 207.541L350.58 189.082L334.979 178.459H353.82L360 160Z" fill="#FBBF24"/>
</svg>
